<?xml version="1.0" encoding="UTF-8" standalone="no"?>
<!-- Created with Inkscape (http://www.inkscape.org/) -->

<svg
   width="128"
   height="64"
   viewBox="0 0 33.866666 16.933333"
   version="1.1"
   id="svg1847"
   inkscape:version="1.1.2 (0a00cf5339, 2022-02-04, custom)"
   sodipodi:docname="screen.svg"
   inkscape:export-filename="D:\Projects\Inframote\ir-remote-decoder\assets\screen.png"
   inkscape:export-xdpi="96"
   inkscape:export-ydpi="96"
   xmlns:inkscape="http://www.inkscape.org/namespaces/inkscape"
   xmlns:sodipodi="http://sodipodi.sourceforge.net/DTD/sodipodi-0.dtd"
   xmlns="http://www.w3.org/2000/svg"
   xmlns:svg="http://www.w3.org/2000/svg">
  <sodipodi:namedview
     id="namedview1849"
     pagecolor="#ffffff"
     bordercolor="#999999"
     borderopacity="1"
     inkscape:pageshadow="0"
     inkscape:pageopacity="0"
     inkscape:pagecheckerboard="0"
     inkscape:document-units="mm"
     showgrid="false"
     fit-margin-top="0"
     fit-margin-left="0"
     fit-margin-right="0"
     fit-margin-bottom="0"
     inkscape:zoom="4.8176907"
     inkscape:cx="42.447723"
     inkscape:cy="48.259636"
     inkscape:window-width="1920"
     inkscape:window-height="974"
     inkscape:window-x="-11"
     inkscape:window-y="-11"
     inkscape:window-maximized="1"
     inkscape:current-layer="layer1"
     units="px"
     width="128px" />
  <defs
     id="defs1844" />
  <g
     inkscape:label="Layer 1"
     inkscape:groupmode="layer"
     id="layer1"
     transform="translate(18.560479,37.323768)">
    <text
       xml:space="preserve"
       style="font-size:10.5833px;line-height:1.25;font-family:'Yu Gothic';-inkscape-font-specification:'Yu Gothic';stroke-width:0.264583"
       x="-1.2609558"
       y="-30.843311"
       id="text1612"><tspan
         sodipodi:role="line"
         id="tspan1610"
         style="stroke-width:0.264583"
         x="-1.2609558"
         y="-30.843311" /></text>
    <path
       id="rect298643"
       style="fill:#000000;fill-opacity:1;stroke:none;stroke-width:0.0984621;stroke-linecap:round;stroke-linejoin:round;stroke-miterlimit:4;stroke-dasharray:none;stroke-dashoffset:7.9748;stroke-opacity:1;paint-order:fill markers stroke;stop-color:#000000"
       inkscape:label="Body Layout"
       d="m -3.5306781,-37.323768 c -0.06259,0 -0.127436,0.0181 -0.187761,0.05431 -0.160869,0.09652 -0.193042,0.289568 -0.09652,0.450438 l 0.388601,0.627716 c -1.039,0.487182 -1.653297,1.403191 -1.724469,2.447031 h 7.0473643 c -0.071832,-1.053544 -0.6970301,-1.976753 -1.75364827,-2.460392 l 0.417781,-0.614355 c 0.09652,-0.16087 0.06435,-0.353916 -0.09652,-0.450438 -0.16087,-0.09652 -0.353916,-0.06434 -0.450437,0.09652 l -0.506881,0.745432 c -0.345784,-0.08797 -0.72461003,-0.135713 -1.13397703,-0.135713 -0.429545,0 -0.825638,0.05239 -1.185026,0.148835 -0.009,-0.02813 -0.02142,-0.05597 -0.03758,-0.0829 l -0.418251,-0.675647 c -0.06032,-0.100548 -0.158361,-0.150822 -0.262675,-0.150822 z m 0.494086,2.029045 c 0.21142,0 0.352338,0.140957 0.352338,0.352375 0,0.176184 -0.140918,0.352377 -0.352338,0.352377 -0.21142,0 -0.352376,-0.14096 -0.352376,-0.352377 0,-0.21142 0.140956,-0.352375 0.352376,-0.352375 z m 2.81895003,0 c 0.21142,0 0.352319,0.140957 0.352319,0.352375 0,0.176184 -0.140899,0.352377 -0.352319,0.352377 -0.211421,0 -0.352376,-0.14096 -0.352376,-0.352377 0,-0.21142 0.140955,-0.352375 0.352376,-0.352375 z m -5.82440303,1.659833 c -0.341086,0 -0.620143,0.279077 -0.620143,0.620162 v 2.790691 c 0,0.341084 0.279057,0.620161 0.620143,0.620161 0.341087,0 0.620162,-0.279077 0.620162,-0.620161 v -2.790691 c 0,-0.341085 -0.279075,-0.620162 -0.620162,-0.620162 z m 8.8297802,0 c -0.3410857,0 -0.620162,0.279077 -0.620162,0.620162 v 2.790691 c 0,0.341084 0.2790763,0.620161 0.620162,0.620161 0.3410869,0 0.6201616,-0.279077 0.6201616,-0.620161 v -2.790691 c 0,-0.341085 -0.2790747,-0.620162 -0.6201616,-0.620162 z m -7.9385622,0.217694 v 5.224232 c 1e-6,1.946078 1.577605,3.52368 3.523681,3.523683 1.94607803,-3e-6 3.5236816,-1.577605 3.523683,-3.523683 v -5.224232 z m 1.26007,0.640716 a 0.65303774,0.65303774 0 0 1 0.653043,0.653043 0.65303774,0.65303774 0 0 1 -0.653043,0.653044 0.65303774,0.65303774 0 0 1 -0.653024,-0.653044 0.65303774,0.65303774 0 0 1 0.653024,-0.653043 z m 1.396558,0.327369 h 0.617268 c 0.125957,0 0.22737,0.101405 0.22737,0.227369 v 0.196614 c 0,0.125951 -0.101412,0.227367 -0.22737,0.227367 h -0.617268 c -0.125958,0 -0.227352,-0.101405 -0.227352,-0.227367 v -0.196614 c 0,-0.125953 0.101394,-0.227369 0.227352,-0.227369 z m 1.458055,0 h 0.61726803 c 0.125958,0 0.22735,0.101405 0.22735,0.227369 v 0.196614 c 0,0.125951 -0.101394,0.227367 -0.22735,0.227367 H -1.0361441 c -0.125959,0 -0.227371,-0.101405 -0.227371,-0.227367 v -0.196614 c 0,-0.125953 0.101413,-0.227369 0.227371,-0.227369 z m 1.45803503,0 H 1.0391599 c 0.125957,0 0.2273699,0.101405 0.2273699,0.227369 v 0.196614 c 0,0.125951 -0.1014118,0.227367 -0.2273699,0.227367 H 0.42189093 c -0.125957,0 -0.227351,-0.101405 -0.227351,-0.227367 v -0.196614 c 0,-0.125953 0.101394,-0.227369 0.227351,-0.227369 z M -1.6271641,-31.1096 c 0.06578,0 0.131561,0.0017 0.181636,0.0054 0.57529503,0.03979 1.12608003,0.249238 1.58245903,0.601749 0.07944,0.06135 0.08102,0.171266 0.0094,0.241537 -0.11949,0.1171 -0.244939,0.245351 -0.37201,0.377027 -0.06972,0.07224 -0.188561,0.07863 -0.271582,0.02222 -0.282206,-0.191752 -0.60853803,-0.30883 -0.94828103,-0.340219 -0.09994,-0.0093 -0.263121,-0.0093 -0.363066,0 -0.339742,0.03138 -0.666073,0.148462 -0.94828,0.340219 -0.08302,0.05641 -0.201866,0.05003 -0.271581,-0.02221 -0.127072,-0.131678 -0.252502,-0.259919 -0.371992,-0.377028 -0.0717,-0.07028 -0.07015,-0.18019 0.0093,-0.241556 0.456381,-0.352511 1.007147,-0.561959 1.58244,-0.601749 0.05007,-0.0034 0.115856,-0.0054 0.181638,-0.0054 z m 0,0.3458 -0.262357,0.262355 h 0.524713 z m -2.192268,0.745412 c 0.04393,-0.0013 0.08898,0.01619 0.124123,0.05203 0.117109,0.119496 0.245352,0.244921 0.377026,0.371992 0.07224,0.06972 0.07863,0.188562 0.02222,0.271582 -0.191752,0.282208 -0.308829,0.608539 -0.340219,0.948279 -0.0093,0.09994 -0.0093,0.263123 0,0.363069 0.03139,0.339741 0.148467,0.666073 0.340219,0.948277 0.05641,0.08302 0.05001,0.201868 -0.02222,0.271584 -0.131673,0.127073 -0.259916,0.252501 -0.377026,0.371993 -0.07028,0.07169 -0.18019,0.07018 -0.241556,-0.0093 -0.35251,-0.45638 -0.561942,-1.007165 -0.601729,-1.58246 -0.0069,-0.100164 -0.0069,-0.263124 0,-0.363273 0.03979,-0.575293 0.249219,-1.12608 0.601729,-1.582457 0.03069,-0.03974 0.07351,-0.05999 0.117434,-0.06133 z m 4.38453503,0 c 0.04393,0.0013 0.08676,0.02159 0.117452,0.06132 0.35250897,0.45638 0.56194107,1.007164 0.60173047,1.582458 0.00697,0.100155 0.00697,0.263124 0,0.363273 -0.039785,0.575297 -0.2492215,1.126081 -0.60173047,1.582461 -0.06137,0.07944 -0.171286,0.08098 -0.241556,0.0093 -0.117108,-0.119496 -0.245352,-0.244921 -0.377026,-0.371993 -0.07225,-0.06973 -0.07864,-0.188581 -0.02223,-0.271601 0.191751,-0.282206 0.30883,-0.608537 0.340219,-0.94828 0.0093,-0.09994 0.0093,-0.263121 0,-0.363066 -0.03139,-0.339742 -0.148468,-0.666072 -0.340219,-0.948281 -0.0564,-0.08303 -0.05003,-0.201846 0.02221,-0.271561 0.131675,-0.127073 0.259918,-0.25252 0.377026,-0.372012 0.03514,-0.03586 0.0802,-0.05339 0.124123,-0.05203 z m -2.48534403,0.261511 c 0.08243,0.0018 0.14937,0.06978 0.155181,0.157378 0.01214,0.182948 0.0247,0.36705 0.03046,0.535461 l 0.0031,0.181766 c -3.7e-5,0.01933 -0.08354,0.04596 -0.174289,0.08818 -0.141711,0.06592 -0.255917,0.180115 -0.321826,0.321827 -0.04221,0.09075 -0.134589,0.174314 -0.234867,0.171545 -0.177699,-0.0049 -0.374518,-0.01811 -0.570426,-0.031 -0.100185,-0.0066 -0.17477,-0.09307 -0.154054,-0.191258 0.130111,-0.616668 0.61379,-1.100355 1.230459,-1.230459 0.01227,-0.0026 0.02435,-0.0037 0.03613,-0.0034 z m 0.586942,1.9e-5 c 0.01178,-2.55e-4 0.02388,8.22e-4 0.03616,0.0034 0.61666903,0.130106 1.10034903,0.61379 1.23046003,1.230458 0.02072,0.09819 -0.05382,0.184672 -0.153923,0.191257 -0.195905,0.01285 -0.392721,0.0261 -0.570425,0.031 -0.100357,0.0028 -0.192791,-0.08078 -0.23500003,-0.171547 -0.0659,-0.141706 -0.180114,-0.255918 -0.321825,-0.321824 -0.09075,-0.04222 -0.174313,-0.134577 -0.171546,-0.234849 0.0049,-0.177699 0.0181,-0.374517 0.03099,-0.570427 0.0058,-0.08765 0.0727,-0.155725 0.155123,-0.157492 z m -2.602345,1.301537 -0.262357,0.262357 0.262357,0.262355 z m 4.61696003,0 v 0.524712 l 0.262356,-0.262355 z m -1.472503,0.369325 c 0.177698,0.0049 0.374515,0.0181 0.570426,0.03098 0.100185,0.0066 0.174789,0.09307 0.154073,0.191256 -0.130106,0.616677 -0.613784,1.100373 -1.23046003,1.230481 -0.09819,0.02072 -0.184674,-0.05382 -0.191257,-0.153924 -0.01288,-0.19591 -0.02609,-0.392736 -0.031,-0.570446 -0.0028,-0.100367 0.08079,-0.19279 0.171547,-0.234998 0.141706,-0.0659 0.255914,-0.180102 0.321824,-0.321806 0.04221,-0.09076 0.13457003,-0.174312 0.23484903,-0.171547 z m -1.67231103,1.8e-5 c 0.100357,-0.0028 0.19267,0.08076 0.234755,0.171567 0.06597,0.142363 0.180665,0.257052 0.49634,0.376012 l 9.71e-4,0.03396 c 0,0 1.83e-4,0.08138 -0.0031,0.181637 -0.0058,0.168635 -0.01835,0.352994 -0.03051,0.53619 -0.0067,0.100186 -0.09313,0.174807 -0.191332,0.154131 -0.617168,-0.129959 -1.101255,-0.614024 -1.231211,-1.231193 -0.02068,-0.09821 0.05388,-0.184691 0.153979,-0.191274 0.195768,-0.01285 0.392499,-0.02608 0.570164,-0.03101 z m -0.434259,1.524777 c 0.04881,-0.0037 0.09929,0.009 0.14079,0.03714 0.282206,0.19175 0.608537,0.308829 0.94828,0.340217 0.09994,0.0093 0.263121,0.0093 0.363066,0 0.339741,-0.03138 0.66607403,-0.148461 0.94828103,-0.340217 0.08302,-0.05641 0.201866,-0.05002 0.271582,0.02219 0.127071,0.131677 0.2525,0.259918 0.371992,0.377027 0.0717,0.07028 0.07015,0.180191 -0.0093,0.241558 -0.456379,0.35251 -1.007163,0.561942 -1.58245803,0.601728 -0.100144,0.0069 -0.263124,0.0069 -0.363274,0 -0.575293,-0.03979 -1.126059,-0.249218 -1.582439,-0.601728 -0.07945,-0.06137 -0.08101,-0.171267 -0.0094,-0.241537 0.119491,-0.117101 0.244921,-0.245355 0.371992,-0.377029 0.03486,-0.03613 0.082,-0.05579 0.130811,-0.05938 z m 1.008236,0.676716 0.262357,0.262355 0.262356,-0.262355 z" />
    <path
       id="path7498"
       style="font-size:145.76px;line-height:1.25;font-family:Staatliches;-inkscape-font-specification:Staatliches;stroke-width:0.0319067"
       inkscape:label="I"
       d="m 3.0527278,-24.234042 c -0.1893977,0 -0.3645907,0.04856 -0.5254007,0.145071 -0.1608094,0.09649 -0.289946,0.225013 -0.3864314,0.385824 -0.092912,0.160804 -0.1389692,0.339216 -0.1389692,0.53576 l -0.0055,1.699326 c 0,0.196543 0.047969,0.376861 0.1444549,0.541247 0.096484,0.160805 0.2237099,0.291248 0.3809457,0.391307 0.16081,0.09647 0.337915,0.145072 0.5308877,0.145072 0.192971,0 0.367555,-0.04857 0.5247887,-0.145072 0.160812,-0.100064 0.2880361,-0.230498 0.3809461,-0.391307 0.09649,-0.164382 0.144455,-0.344704 0.144455,-0.541247 l -0.0055,-1.699326 c 0,-0.196544 -0.04797,-0.374953 -0.144455,-0.53576 -0.09291,-0.160807 -0.2182251,-0.289339 -0.3754621,-0.385824 -0.1572347,-0.09647 -0.3318177,-0.145071 -0.5247897,-0.145071 z m -14.6392968,0.05914 c -0.01429,0 -0.02134,0.0072 -0.02134,0.02136 l -0.0055,3.682683 c 0,0.01785 0.009,0.02682 0.02682,0.02682 h 0.605853 c 0.01429,0 0.02134,-0.009 0.02134,-0.02682 l -0.0055,-3.682683 c 0,-0.01422 -0.007,-0.02136 -0.02134,-0.02136 z m 1.141619,0 c -0.02859,0 -0.04267,0.01406 -0.04267,0.04266 l 0.0055,3.650378 c 0,0.02503 0.01408,0.03777 0.04267,0.03777 h 0.5357625 c 0.032165,0 0.048758,-0.01409 0.048758,-0.04267 l -0.037787,-1.929719 0.9270702,1.972383 h 0.4717638 c 0.017868,0 0.026818,-0.01086 0.026818,-0.03231 l -0.00493,-3.655862 c 0,-0.02858 -0.010814,-0.04267 -0.03231,-0.04267 h -0.5308911 c -0.032165,0 -0.048144,0.01409 -0.048144,0.04267 l 0.026818,2.069298 -0.9057368,-2.111965 z m 2.4764533,0 c -0.014286,0 -0.021327,0.0072 -0.021327,0.02136 l -0.010933,3.682683 c 0,0.01785 0.00901,0.02682 0.026817,0.02682 h 0.6003704 c 0.017866,0 0.026818,-0.009 0.026818,-0.02682 v -1.570717 h 1.0989525 c 0.017866,0 0.026818,-0.0072 0.026818,-0.02137 l -0.00553,-0.605854 c 0,-0.01786 -0.00696,-0.02682 -0.021327,-0.02682 h -1.0989491 v -0.830768 h 1.0989525 c 0.014286,0 0.021327,-0.0072 0.021327,-0.02137 v -0.605855 c 0,-0.01422 -0.00901,-0.02137 -0.026818,-0.02137 z m 2.3106661,0 c -0.014286,0 -0.021941,0.0072 -0.021941,0.02136 l -0.010332,3.682683 c 0,0.01785 0.00696,0.02682 0.021338,0.02682 h 0.6058554 c 0.014286,0 0.021328,-0.009 0.021328,-0.02682 l 0.00553,-1.576203 h 0.353513 c 0.132222,0 0.2428464,0.04856 0.3321856,0.145071 0.092914,0.09291 0.1395781,0.203539 0.1395781,0.332186 v 1.109925 c 0,0.0106 0.00696,0.01585 0.021327,0.01585 h 0.6058565 c 0.017865,0 0.026817,-0.009 0.026817,-0.02682 l -0.00553,-1.098956 c 0,-0.289457 -0.096544,-0.541383 -0.2895192,-0.755798 0.042883,-0.03573 0.09146,-0.08944 0.1450653,-0.160912 0.053599,-0.07503 0.099655,-0.163937 0.1389688,-0.267574 0.039314,-0.107202 0.059127,-0.227391 0.059127,-0.359615 0,-0.200119 -0.047966,-0.378526 -0.144455,-0.535764 -0.096496,-0.160806 -0.2269272,-0.288033 -0.39131,-0.380943 -0.1608089,-0.09648 -0.3379158,-0.144451 -0.5308867,-0.144451 z m 3.0603683,0 c -0.014299,0 -0.02325,0.0072 -0.026817,0.02136 l -0.6643705,3.682678 c 0,0.01785 0.00709,0.02682 0.021338,0.02682 h 0.5948855 c 0.0143,0 0.02325,-0.009 0.026817,-0.02682 l 0.059129,-0.391307 h 0.7289784 l 0.059128,0.391307 c 0.00361,0.01785 0.012532,0.02682 0.026817,0.02682 h 0.5948867 c 0.017865,0 0.024907,-0.009 0.021327,-0.02682 l -0.6381606,-3.682682 c -0.00361,-0.01422 -0.012532,-0.02136 -0.026818,-0.02136 z m 1.81208401,0 c -0.014299,0 -0.021339,0.0072 -0.021339,0.02136 l -0.010932,3.682683 c 0,0.01785 0.00697,0.02682 0.021327,0.02682 h 0.6058581 c 0.014299,0 0.021327,-0.009 0.021327,-0.02682 l 0.00553,-2.733669 0.5570961,0.814919 0.56318987,-0.814919 0.00553,2.733669 c 0,0.01785 0.00709,0.02682 0.021327,0.02682 H 1.5893912 c 0.014295,0 0.021333,-0.009 0.021333,-0.02682 l -0.010967,-3.682683 c 0,-0.01422 -0.00704,-0.02136 -0.021333,-0.02136 H 0.91892868 c -0.0143,0 -0.026456,0.0072 -0.037176,0.02136 l -0.48821987,0.70764 -0.487611,-0.707647 c -0.010696,-0.01421 -0.022889,-0.02137 -0.037176,-0.02137 z m 5.04372289,0 c -0.0143,0 -0.02135,0.0072 -0.02135,0.02136 l -0.0055,0.600373 c 0,0.01786 0.0091,0.02682 0.02682,0.02682 h 0.697284 v 3.055493 c 0,0.01786 0.0072,0.02682 0.02135,0.02682 h 0.605246 c 0.01429,0 0.02194,-0.009 0.02194,-0.02682 l -0.0055,-3.055493 h 0.702161 c 0.0143,0 0.02133,-0.009 0.02133,-0.02682 v -0.600373 c 0,-0.01422 -0.009,-0.02136 -0.02682,-0.02136 z m 2.353333,0 c -0.0143,0 -0.02136,0.0072 -0.02136,0.02136 l -0.0055,3.682683 c 0,0.01785 0.0072,0.02682 0.02134,0.02682 h 1.73163 c 0.0143,0 0.02133,-0.0072 0.02133,-0.02137 v -0.611344 c 0,-0.01786 -0.0072,-0.02682 -0.02133,-0.02682 h -1.104448 v -0.938041 h 1.104438 c 0.0143,-2e-6 0.02134,-0.0072 0.02134,-0.02137 l -0.0055,-0.605858 c 0,-0.01422 -0.0072,-0.02137 -0.02136,-0.02137 h -1.098959 v -0.836255 h 1.098952 c 0.01429,0 0.02134,-0.0072 0.02134,-0.02137 v -0.60037 c 0,-0.01786 -0.0072,-0.02682 -0.02134,-0.02682 z m -3.5796735,0.584525 c 0.0068,-3.17e-4 0.0138,0 0.02072,0 0.114354,0 0.208988,0.04095 0.284034,0.123121 0.07504,0.08221 0.11215,0.181956 0.11215,0.29988 l 0.0054,1.699325 c 0,0.110779 -0.04094,0.21115 -0.123123,0.300489 -0.07862,0.08578 -0.171342,0.128604 -0.278546,0.128604 -0.1107738,0 -0.2060208,-0.04155 -0.2846378,-0.123731 -0.07862,-0.08578 -0.117636,-0.187438 -0.117636,-0.305365 v -1.699325 c 0,-0.121507 0.03902,-0.221261 0.117636,-0.299881 0.0737,-0.07703 0.161947,-0.118303 0.26392,-0.123122 z m -8.068131,0.05852 h 0.4607924 c 0.1143505,0 0.2128131,0.04154 0.2950043,0.123728 0.085766,0.0822 0.1286067,0.180044 0.1286067,0.294397 0,0.117932 -0.042848,0.218297 -0.1286067,0.30049 -0.085766,0.08221 -0.1842248,0.123122 -0.2950043,0.123122 h -0.4607924 z m 2.8196102,0.391308 0.031696,0.198699 0.2200343,1.506112 h -0.5144285 l 0.2407571,-1.506112 z" />
  </g>
</svg>
