<?xml version="1.0" encoding="UTF-8" standalone="no"?>
<!-- Created with Inkscape (http://www.inkscape.org/) -->

<svg
   width="128"
   height="64"
   viewBox="0 0 33.866666 16.933333"
   version="1.1"
   id="svg1847"
   inkscape:version="1.1.2 (0a00cf5339, 2022-02-04, custom)"
   sodipodi:docname="screen.svg"
   xmlns:inkscape="http://www.inkscape.org/namespaces/inkscape"
   xmlns:sodipodi="http://sodipodi.sourceforge.net/DTD/sodipodi-0.dtd"
   xmlns="http://www.w3.org/2000/svg"
   xmlns:svg="http://www.w3.org/2000/svg">
  <sodipodi:namedview
     id="namedview1849"
     pagecolor="#ffffff"
     bordercolor="#999999"
     borderopacity="1"
     inkscape:pageshadow="0"
     inkscape:pageopacity="0"
     inkscape:pagecheckerboard="0"
     inkscape:document-units="mm"
     showgrid="false"
     fit-margin-top="0"
     fit-margin-left="0"
     fit-margin-right="0"
     fit-margin-bottom="0"
     inkscape:zoom="4.8176907"
     inkscape:cx="83.961388"
     inkscape:cy="16.501682"
     inkscape:window-width="1920"
     inkscape:window-height="974"
     inkscape:window-x="-11"
     inkscape:window-y="-11"
     inkscape:window-maximized="1"
     inkscape:current-layer="layer1"
     units="px"
     width="128px" />
  <defs
     id="defs1844" />
  <g
     inkscape:label="Layer 1"
     inkscape:groupmode="layer"
     id="layer1"
     transform="translate(18.560479,37.323768)">
    <g
       id="g2000"
       transform="matrix(1.0377073,0,0,1.0377073,0.06135524,1.7462322)">
      <path
         id="rect298643"
         style="fill:#000000;fill-opacity:1;stroke:none;stroke-width:0.0839323;stroke-linecap:round;stroke-linejoin:round;stroke-miterlimit:4;stroke-dasharray:none;stroke-dashoffset:7.9748;stroke-opacity:1;paint-order:fill markers stroke;stop-color:#000000"
         inkscape:label="Body Layout"
         d="m -3.2497747,-36.773594 c -0.053349,0 -0.1086305,0.01543 -0.1600539,0.04629 -0.1371291,0.08228 -0.1645554,0.246837 -0.082279,0.383967 l 0.3312558,0.535084 c -0.8856755,0.41529 -1.4093216,1.196123 -1.4699899,2.085925 H 1.376547 c -0.061231,-0.898073 -0.59416968,-1.685045 -1.49486378,-2.097314 l 0.35612955,-0.523695 c 0.082279,-0.13713 0.0548522,-0.301689 -0.082279,-0.383967 -0.13713001,-0.08228 -0.30168882,-0.05485 -0.38396618,0.08228 l -0.43208081,0.635428 c -0.29475714,-0.07498 -0.61767968,-0.115685 -0.96663628,-0.115685 -0.3661574,0 -0.7037995,0.04466 -1.0101523,0.126871 -0.00764,-0.02398 -0.018261,-0.04771 -0.03203,-0.07067 l -0.3565297,-0.575942 c -0.051421,-0.08571 -0.1349929,-0.128565 -0.2239132,-0.128565 z m 0.4211739,1.729619 c 0.1802206,0 0.3003436,0.120157 0.3003436,0.300375 0,0.150186 -0.1201226,0.300377 -0.3003436,0.300377 -0.1802205,0 -0.3003765,-0.120157 -0.3003765,-0.300377 0,-0.18022 0.1201557,-0.300375 0.3003765,-0.300375 z m 2.40295863,0 c 0.18022048,0 0.30032823,0.120157 0.30032823,0.300375 0,0.150186 -0.12010724,0.300377 -0.30032823,0.300377 -0.18022139,0 -0.30037577,-0.120157 -0.30037577,-0.300377 0,-0.18022 0.12015438,-0.300375 0.30037577,-0.300375 z m -4.96489903,1.414893 c -0.2907522,0 -0.5286284,0.237893 -0.5286284,0.528645 v 2.37887 c 0,0.290751 0.2378762,0.528644 0.5286284,0.528644 0.2907524,0 0.5286455,-0.237893 0.5286455,-0.528644 v -2.37887 c 0,-0.290752 -0.2378931,-0.528645 -0.5286455,-0.528645 z m 7.5267747,0 c -0.2907519,0 -0.5286451,0.237893 -0.5286451,0.528645 v 2.37887 c 0,0.290751 0.2378932,0.528644 0.5286451,0.528644 0.2907529,0 0.5286447,-0.237893 0.5286447,-0.528644 v -2.37887 c 0,-0.290752 -0.2378918,-0.528645 -0.5286447,-0.528645 z m -6.7670736,0.185569 v 4.453295 c 9e-7,1.658896 1.3447996,3.003693 3.003694,3.003695 1.65889617,-2e-6 3.0036939,-1.344799 3.0036949,-3.003695 v -4.453295 z m 1.0741231,0.546166 a 0.55666937,0.55666937 0 0 1 0.556674,0.556674 0.55666937,0.55666937 0 0 1 -0.556674,0.556675 0.55666937,0.55666937 0 0 1 -0.5566578,-0.556675 0.55666937,0.55666937 0 0 1 0.5566578,-0.556674 z m 1.190468,0.279059 h 0.526178 c 0.1073705,0 0.1938173,0.08644 0.1938173,0.193817 v 0.167599 c 0,0.107365 -0.086446,0.193815 -0.1938173,0.193815 h -0.526178 c -0.1073704,0 -0.1938012,-0.08644 -0.1938012,-0.193815 v -0.167599 c 0,-0.107366 0.086431,-0.193817 0.1938012,-0.193817 z m 1.2428905,0 h 0.52617807 c 0.10737043,0 0.19380124,0.08644 0.19380124,0.193817 v 0.167599 c 0,0.107365 -0.0864312,0.193815 -0.19380124,0.193815 H -1.1233585 c -0.1073704,0 -0.1938173,-0.08644 -0.1938173,-0.193815 v -0.167599 c 0,-0.107366 0.086447,-0.193817 0.1938173,-0.193817 z m 1.24287447,0 h 0.52617804 c 0.10737043,0 0.19381742,0.08644 0.19381742,0.193817 v 0.167599 c 0,0.107365 -0.0864465,0.193815 -0.19381742,0.193815 H 0.11951597 c -0.10737043,0 -0.19380111,-0.08644 -0.19380111,-0.193815 v -0.167599 c 0,-0.107366 0.08643119,-0.193817 0.19380111,-0.193817 z m -1.74667737,1.141841 c 0.056075,0 0.1121469,0.0014 0.1548327,0.0045 0.49039816,0.03392 0.95990407,0.212459 1.34893605,0.512949 0.0677203,0.05231 0.06906316,0.145993 0.007988,0.205894 -0.10185756,0.09982 -0.20879353,0.209145 -0.31711262,0.321389 -0.0594312,0.06159 -0.16073586,0.06703 -0.23150499,0.01894 -0.24056192,-0.163454 -0.51873684,-0.263255 -0.80834324,-0.290012 -0.085195,-0.0079 -0.2242929,-0.0079 -0.3094888,0 -0.2896065,0.02675 -0.5677813,0.126553 -0.8083431,0.290012 -0.07077,0.04808 -0.1720768,0.04264 -0.2315042,-0.01893 -0.1083196,-0.112245 -0.2152403,-0.221562 -0.3170973,-0.321389 -0.061121,-0.05991 -0.059796,-0.1536 0.0079,-0.20591 0.3890328,-0.300491 0.8585226,-0.479032 1.3489199,-0.512949 0.042681,-0.0029 0.098759,-0.0045 0.1548335,-0.0045 z m 0,0.29477 -0.2236406,0.22364 h 0.4472804 z m -1.8687564,0.635412 c 0.037449,-0.0012 0.075858,0.0138 0.1058059,0.04435 0.099827,0.101862 0.2091459,0.208778 0.3213893,0.317097 0.061588,0.05944 0.067032,0.160737 0.018949,0.231505 -0.1634555,0.240562 -0.2632563,0.518737 -0.2900133,0.808342 -0.0079,0.0852 -0.0079,0.224294 0,0.309491 0.026755,0.289606 0.1265578,0.567781 0.2900133,0.808342 0.048083,0.07077 0.04263,0.172077 -0.018949,0.231505 -0.1122425,0.108321 -0.2215613,0.21524 -0.3213893,0.317098 -0.059906,0.06112 -0.1535994,0.05982 -0.2059099,-0.0079 -0.3004896,-0.389033 -0.4790157,-0.858538 -0.512932,-1.348937 -0.00595,-0.08538 -0.00595,-0.224296 0,-0.309666 0.033915,-0.490397 0.2124424,-0.959904 0.512932,-1.348935 0.026153,-0.03387 0.062658,-0.05113 0.1001044,-0.05228 z m 3.73751199,0 c 0.0374486,0.0012 0.0739632,0.01841 0.10011973,0.05227 0.30048954,0.389033 0.47901552,0.858538 0.51293287,1.348936 0.00595,0.08537 0.00595,0.224295 0,0.309665 -0.0339156,0.4904 -0.21244333,0.959905 -0.51293287,1.348938 -0.0523131,0.06772 -0.14600946,0.06904 -0.20590994,0.0079 -0.0998267,-0.101861 -0.20914606,-0.208778 -0.32138927,-0.317098 -0.0615882,-0.05944 -0.0670323,-0.160752 -0.0189491,-0.23152 0.1634547,-0.240562 0.26325643,-0.518736 0.29001342,-0.808344 0.0078992,-0.0852 0.0078992,-0.224292 0,-0.309489 -0.02675533,-0.289606 -0.1265591,-0.56778 -0.29001342,-0.808343 -0.0480832,-0.07078 -0.0426467,-0.17206 0.0189326,-0.231487 0.11224372,-0.108321 0.2215622,-0.215256 0.3213894,-0.317115 0.0299571,-0.03057 0.0683573,-0.04551 0.10580588,-0.04435 z m -2.11858329,0.222919 c 0.070261,0.0015 0.1273274,0.05949 0.1322809,0.134155 0.010345,0.155951 0.021056,0.312885 0.025965,0.456442 l 0.00271,0.154944 c -3.14e-5,0.01647 -0.071211,0.03918 -0.1485702,0.07517 -0.1207978,0.05619 -0.2181512,0.153535 -0.274333,0.274334 -0.03598,0.07736 -0.1147282,0.148591 -0.2002082,0.146231 -0.1514759,-0.0042 -0.3192505,-0.01544 -0.4862488,-0.02642 -0.085403,-0.0056 -0.1489796,-0.07934 -0.1313203,-0.163033 0.110911,-0.525668 0.5232129,-0.937977 1.0488813,-1.048882 0.01046,-0.0022 0.020767,-0.0032 0.030798,-0.0029 z m 0.5003273,1.7e-5 c 0.01004,-2.17e-4 0.020351,7.07e-4 0.030816,0.0029 0.52566751,0.110907 0.93797064,0.523213 1.04888118,1.048881 0.0176585,0.08369 -0.0458752,0.15742 -0.13120815,0.163032 -0.16699571,0.01096 -0.33476784,0.02225 -0.48624889,0.02642 -0.0855495,0.0024 -0.16433974,-0.06886 -0.20032014,-0.146232 -0.056177,-0.120794 -0.1535349,-0.218152 -0.274333,-0.274333 -0.077361,-0.03598 -0.1485898,-0.114717 -0.1462319,-0.200192 0.00417,-0.151476 0.015433,-0.319249 0.026415,-0.486249 0.00493,-0.07472 0.061971,-0.132744 0.1322325,-0.134251 z m -2.2183188,1.109471 -0.2236405,0.22364 0.2236405,0.22364 z m 3.93563832,0 v 0.44728 l 0.22363981,-0.22364 z m -1.25520737,0.314823 c 0.15147596,0.0042 0.31924897,0.01543 0.48624889,0.02641 0.085403,0.0056 0.14899497,0.07934 0.13133645,0.163033 -0.11090595,0.525673 -0.52320858,0.937991 -1.04888139,1.048898 -0.083697,0.01766 -0.1574215,-0.04588 -0.1630333,-0.131209 -0.010983,-0.167 -0.022245,-0.33478 -0.026424,-0.486266 -0.00238,-0.08555 0.068867,-0.164339 0.1462319,-0.200318 0.1207952,-0.05617 0.2181494,-0.153525 0.274333,-0.274319 0.03598,-0.07736 0.1147116,-0.148589 0.20019199,-0.146231 z m -1.42552845,1.6e-5 c 0.08555,-0.0024 0.1642379,0.06884 0.2001121,0.146248 0.056237,0.121355 0.1540046,0.21912 0.4230952,0.320524 l 8.494e-4,0.02895 c 0,0 1.555e-4,0.06936 -0.00271,0.154833 -0.00493,0.143749 -0.015637,0.300903 -0.026,0.457065 -0.0057,0.0854 -0.079391,0.149011 -0.1630971,0.131385 -0.5260932,-0.11078 -0.9387436,-0.523412 -1.0495218,-1.049506 -0.017624,-0.08371 0.045926,-0.157436 0.1312566,-0.163048 0.1668786,-0.01096 0.3345785,-0.02223 0.4860246,-0.02644 z m -0.3701757,1.299766 c 0.041602,-0.0031 0.084632,0.0076 0.120013,0.03166 0.2405619,0.163454 0.5187367,0.263256 0.8083432,0.290012 0.085195,0.0079 0.2242929,0.0079 0.3094888,0 0.2896064,-0.02675 0.5677813,-0.126553 0.80834309,-0.290012 0.0707704,-0.04808 0.17207757,-0.04264 0.23150499,0.01893 0.1083196,0.112245 0.21523952,0.221561 0.31709746,0.321389 0.06112065,0.05991 0.05979562,0.1536 -0.007899,0.20591 -0.38903275,0.300491 -0.85853789,0.479017 -1.34893604,0.512932 -0.08537,0.006 -0.2242954,0.006 -0.3096662,0 -0.4903973,-0.03392 -0.9598871,-0.212441 -1.3489199,-0.512932 -0.06772,-0.05231 -0.069063,-0.145993 -0.00799,-0.205893 0.1018576,-0.09982 0.2087774,-0.209147 0.3170974,-0.32139 0.02972,-0.0308 0.069904,-0.04756 0.1115073,-0.05062 z m 0.8594518,0.576854 0.2236406,0.22364 0.2236398,-0.22364 z" />
      <path
         id="path7498"
         style="font-size:145.76px;line-height:1.25;font-family:Staatliches;-inkscape-font-specification:Staatliches;stroke-width:0.0228403"
         inkscape:label="I"
         d="m 1.7228845,-24.960421 c -0.1355791,0 -0.2609902,0.03477 -0.3761047,0.103849 -0.1151144,0.06907 -0.207556,0.161073 -0.2766245,0.276187 -0.066511,0.115112 -0.0994803,0.242827 -0.0994803,0.383523 l -0.003927,1.21645 c 0,0.140695 0.0343383,0.269775 0.1034071,0.387449 0.069068,0.115112 0.1601413,0.208488 0.2726977,0.280114 0.1151145,0.06907 0.2418942,0.103849 0.3800316,0.103849 0.1381372,0 0.263112,-0.03477 0.3756683,-0.103849 0.1151142,-0.07163 0.2061873,-0.165 0.2726979,-0.280114 0.069068,-0.117672 0.1034068,-0.246754 0.1034068,-0.387449 l -0.00392,-1.21645 c 0,-0.140696 -0.034339,-0.268409 -0.1034068,-0.383523 -0.06651,-0.115111 -0.1562145,-0.207119 -0.2687709,-0.276187 -0.1125558,-0.06907 -0.237531,-0.103849 -0.3756684,-0.103849 z m -10.4794469,0.04232 c -0.010231,0 -0.015271,0.0051 -0.015271,0.01528 l -0.00392,2.636223 c 0,0.01279 0.00641,0.0192 0.019199,0.0192 h 0.4336985 c 0.010231,0 0.015271,-0.0064 0.015271,-0.0192 l -0.00392,-2.636223 c 0,-0.01019 -0.00503,-0.01528 -0.015271,-0.01528 z m 0.8172206,0 c -0.020465,0 -0.030542,0.01007 -0.030542,0.03054 l 0.00392,2.613099 c 0,0.0179 0.010078,0.02705 0.030542,0.02705 h 0.3835222 c 0.023024,0 0.034905,-0.01007 0.034905,-0.03054 l -0.027052,-1.381378 0.6636373,1.411919 h 0.3377089 c 0.012789,0 0.019199,-0.0078 0.019199,-0.02312 l -0.00349,-2.617026 c 0,-0.02046 -0.00777,-0.03054 -0.023124,-0.03054 h -0.3800317 c -0.023022,0 -0.034469,0.01007 -0.034469,0.03054 l 0.019199,1.481294 -0.6483661,-1.511836 z m 1.7727535,0 c -0.010231,0 -0.015271,0.0051 -0.015271,0.01528 l -0.00785,2.636223 c 0,0.01279 0.00641,0.0192 0.019199,0.0192 h 0.4297719 c 0.012789,0 0.019199,-0.0064 0.019199,-0.0192 v -1.124386 h 0.7866784 c 0.012789,0 0.019199,-0.0051 0.019199,-0.01528 l -0.00392,-0.433699 c 0,-0.01279 -0.00503,-0.0192 -0.015271,-0.0192 h -0.7866785 v -0.594699 h 0.7866785 c 0.010231,0 0.015271,-0.0051 0.015271,-0.01528 v -0.433697 c 0,-0.01019 -0.00641,-0.01528 -0.019199,-0.01528 z m 1.6540753,0 c -0.010231,0 -0.015707,0.0051 -0.015707,0.01528 l -0.00741,2.636223 c 0,0.01279 0.00503,0.0192 0.015271,0.0192 h 0.4336984 c 0.010231,0 0.015271,-0.0064 0.015271,-0.0192 l 0.00392,-1.128314 h 0.2530634 c 0.09465,0 0.1738401,0.03477 0.2377926,0.103849 0.06651,0.06651 0.099916,0.145701 0.099916,0.237792 v 0.794533 c 0,0.0076 0.00503,0.01134 0.015271,0.01134 h 0.4336986 c 0.012789,0 0.019199,-0.0064 0.019199,-0.0192 l -0.00392,-0.786679 c 0,-0.207206 -0.069113,-0.387546 -0.2072503,-0.541033 0.030697,-0.02558 0.065472,-0.06402 0.1038439,-0.115188 0.038371,-0.05371 0.071341,-0.117354 0.09948,-0.191542 0.028139,-0.07674 0.042323,-0.162777 0.042323,-0.257427 0,-0.143254 -0.034339,-0.270966 -0.1034068,-0.383523 -0.069071,-0.115112 -0.1624447,-0.206187 -0.2801172,-0.272697 -0.1151142,-0.06907 -0.2418943,-0.103403 -0.3800317,-0.103403 z m 2.1907447,0 c -0.010231,0 -0.016643,0.0051 -0.019199,0.01528 l -0.4755851,2.636223 c 0,0.01279 0.00505,0.0192 0.015271,0.0192 h 0.4258449 c 0.010231,0 0.016643,-0.0064 0.019199,-0.0192 l 0.042323,-0.280114 H -1.79208 l 0.042323,0.280114 c 0.00256,0.01279 0.00897,0.0192 0.019199,0.0192 h 0.4258449 c 0.012787,0 0.017827,-0.0064 0.015271,-0.0192 l -0.456824,-2.636223 c -0.00256,-0.01019 -0.00897,-0.01528 -0.019199,-0.01528 z m 1.2971686,0 c -0.010231,0 -0.015271,0.0051 -0.015271,0.01528 l -0.00785,2.636223 c 0,0.01279 0.00503,0.0192 0.015271,0.0192 h 0.43369876 c 0.010232,0 0.0152712,-0.0064 0.0152712,-0.0192 l 0.003927,-1.956878 0.39879313,0.583355 0.40315645,-0.583355 0.003927,1.956878 c 0,0.01279 0.005038,0.0192 0.0152712,0.0192 H 0.6752937 c 0.0102333,0 0.0152712,-0.0064 0.0152712,-0.0192 l -0.007855,-2.636223 c 0,-0.01019 -0.005038,-0.01528 -0.0152712,-0.01528 H 0.19534591 c -0.010232,0 -0.0189416,0.0051 -0.0266154,0.01528 l -0.34948939,0.506564 -0.34905312,-0.506564 c -0.007674,-0.01019 -0.0163837,-0.01528 -0.0266152,-0.01528 z m 3.610518,0 c -0.010231,0 -0.015271,0.0051 -0.015271,0.01528 l -0.00392,0.429772 c 0,0.01279 0.00641,0.0192 0.019199,0.0192 h 0.4991459 v 2.187254 c 0,0.01279 0.00503,0.0192 0.015271,0.0192 h 0.4332621 c 0.010231,0 0.015707,-0.0064 0.015707,-0.0192 l -0.00392,-2.187254 h 0.5026365 c 0.010231,0 0.015271,-0.0064 0.015271,-0.0192 v -0.429772 c 0,-0.01019 -0.00641,-0.01528 -0.019199,-0.01528 z m 1.6846177,0 c -0.010231,0 -0.015271,0.0051 -0.015271,0.01528 l -0.00392,2.636223 c 0,0.01279 0.00503,0.0192 0.015271,0.0192 h 1.239575 c 0.010231,0 0.015271,-0.0051 0.015271,-0.01528 v -0.437626 c 0,-0.01279 -0.00505,-0.0192 -0.015271,-0.0192 H 4.7155784 v -0.67149 h 0.7906054 c 0.010231,-1e-6 0.015271,-0.0051 0.015271,-0.01528 l -0.00392,-0.433698 c 0,-0.01019 -0.00503,-0.01528 -0.015271,-0.01528 H 4.7155782 v -0.598626 h 0.7866783 c 0.010231,0 0.015271,-0.0051 0.015271,-0.01528 v -0.429772 c 0,-0.01279 -0.00503,-0.0192 -0.015271,-0.0192 z m -2.5624861,0.418428 c 0.00487,-2.24e-4 0.00988,0 0.014836,0 0.081859,0 0.1496029,0.0293 0.2033234,0.08814 0.05372,0.05884 0.080283,0.130251 0.080283,0.214668 l 0.00392,1.21645 c 0,0.0793 -0.0293,0.151151 -0.088136,0.215104 -0.056278,0.0614 -0.1226541,0.09206 -0.1993965,0.09206 -0.079301,0 -0.1474815,-0.02974 -0.2037598,-0.08857 -0.056278,-0.0614 -0.084209,-0.134178 -0.084209,-0.218595 v -1.21645 c 0,-0.08698 0.027931,-0.15839 0.084209,-0.214668 0.052761,-0.05515 0.1159295,-0.08469 0.1889265,-0.08814 z m -5.7755202,0.04189 h 0.3298552 c 0.081859,0 0.1523408,0.02974 0.2111772,0.08857 0.061395,0.05884 0.092062,0.128882 0.092062,0.210742 0,0.08442 -0.030668,0.156266 -0.092062,0.215104 -0.061395,0.05884 -0.1318762,0.08814 -0.2111772,0.08814 h -0.3298552 z m 2.0183996,0.280114 0.022689,0.142239 0.1575102,1.078139 h -0.3682517 l 0.1723451,-1.078139 z" />
    </g>
  </g>
</svg>
